<svg width="40" height="40" viewBox="0 0 40 40" fill="none" xmlns="http://www.w3.org/2000/svg">
<circle cx="20" cy="20" r="20" fill="#FC800E"/>
<path d="M16.8 29H13C12.45 29 11.9792 28.8042 11.5875 28.4125C11.1958 28.0208 11 27.55 11 27V23.2C11.8 23.2 12.5 22.9458 13.1 22.4375C13.7 21.9292 14 21.2833 14 20.5C14 19.7167 13.7 19.0708 13.1 18.5625C12.5 18.0542 11.8 17.8 11 17.8V14C11 13.45 11.1958 12.9792 11.5875 12.5875C11.9792 12.1958 12.45 12 13 12H17C17 11.3 17.2417 10.7083 17.725 10.225C18.2083 9.74167 18.8 9.5 19.5 9.5C20.2 9.5 20.7917 9.74167 21.275 10.225C21.7583 10.7083 22 11.3 22 12H26C26.55 12 27.0208 12.1958 27.4125 12.5875C27.8042 12.9792 28 13.45 28 14V18C28.7 18 29.2917 18.2417 29.775 18.725C30.2583 19.2083 30.5 19.8 30.5 20.5C30.5 21.2 30.2583 21.7917 29.775 22.275C29.2917 22.7583 28.7 23 28 23V27C28 27.55 27.8042 28.0208 27.4125 28.4125C27.0208 28.8042 26.55 29 26 29H22.2C22.2 28.1667 21.9375 27.4583 21.4125 26.875C20.8875 26.2917 20.25 26 19.5 26C18.75 26 18.1125 26.2917 17.5875 26.875C17.0625 27.4583 16.8 28.1667 16.8 29ZM13 27H15.125C15.525 25.9 16.1667 25.125 17.05 24.675C17.9333 24.225 18.75 24 19.5 24C20.25 24 21.0667 24.225 21.95 24.675C22.8333 25.125 23.475 25.9 23.875 27H26V21H28C28.1333 21 28.25 20.95 28.35 20.85C28.45 20.75 28.5 20.6333 28.5 20.5C28.5 20.3667 28.45 20.25 28.35 20.15C28.25 20.05 28.1333 20 28 20H26V14H20V12C20 11.8667 19.95 11.75 19.85 11.65C19.75 11.55 19.6333 11.5 19.5 11.5C19.3667 11.5 19.25 11.55 19.15 11.65C19.05 11.75 19 11.8667 19 12V14H13V16.2C13.9 16.5333 14.625 17.0917 15.175 17.875C15.725 18.6583 16 19.5333 16 20.5C16 21.45 15.725 22.3167 15.175 23.1C14.625 23.8833 13.9 24.45 13 24.8V27Z" fill="white"/>
</svg>
